<?xml version="1.0" standalone="no"?>
<!DOCTYPE svg PUBLIC "-//W3C//DTD SVG 20010904//EN"
 "http://www.w3.org/TR/2001/REC-SVG-20010904/DTD/svg10.dtd">
<svg version="1.0" xmlns="http://www.w3.org/2000/svg"
 width="200.000000pt" height="200.000000pt" viewBox="0 0 200.000000 200.000000"
 preserveAspectRatio="xMidYMid meet">
<metadata>
Created by potrace 1.14, written by Peter Selinger 2001-2017
</metadata>
<g transform="translate(0.000000,200.000000) scale(0.100000,-0.100000)"
fill="#000000" stroke="none">
<path d="M320 1938 c0 -7 4 -29 9 -48 7 -31 55 -232 136 -580 25 -106 55 -234
99 -422 13 -57 59 -251 101 -433 42 -181 81 -347 86 -368 l10 -37 238 0 239 0
16 68 c8 37 40 173 71 302 30 129 60 257 65 283 5 27 12 52 15 57 3 5 10 30
15 57 11 58 15 75 29 133 12 48 18 72 25 105 3 11 12 52 21 90 9 39 18 77 20
85 2 8 20 85 40 170 20 85 38 162 40 170 2 8 20 85 40 170 21 85 39 167 42
182 l4 26 -195 2 c-114 0 -197 -3 -200 -9 -4 -5 -31 -128 -62 -273 -31 -145
-57 -270 -59 -278 -2 -8 -17 -82 -34 -165 -17 -82 -33 -157 -36 -165 -2 -8 -7
-31 -10 -50 -3 -19 -19 -93 -35 -165 -16 -71 -32 -151 -35 -178 -8 -53 -22
-71 -23 -29 0 15 -28 155 -62 312 -34 157 -64 296 -66 310 -2 14 -11 54 -19
90 -8 36 -28 128 -44 205 -59 276 -82 379 -87 387 -3 4 -93 8 -200 8 -149 0
-194 -3 -194 -12z"/>
</g>
</svg>
